<svg width="267" height="296" viewBox="0 0 267 296" fill="none" xmlns="http://www.w3.org/2000/svg">
<g filter="url(#filter0_d_4128_58941)">
<path fill-rule="evenodd" clip-rule="evenodd" d="M153.213 206.051C199.818 196.869 234.968 155.781 234.968 106.484C234.968 50.4359 189.532 5 133.484 5C77.4359 5 32 50.4359 32 106.484C32 155.781 67.15 196.869 113.755 206.051L129.51 229.685C131.401 232.52 135.567 232.52 137.458 229.685L153.213 206.051Z" fill="white"/>
<path d="M153.213 206.051L152.321 201.525L150.439 201.896L149.375 203.492L153.213 206.051ZM113.755 206.051L117.593 203.492L116.529 201.896L114.646 201.525L113.755 206.051ZM129.51 229.685L133.348 227.126L129.51 229.685ZM137.458 229.685L133.619 227.126L137.458 229.685ZM154.105 210.577C202.83 200.977 239.581 158.027 239.581 106.484H230.355C230.355 153.535 196.805 192.761 152.321 201.525L154.105 210.577ZM239.581 106.484C239.581 47.8882 192.079 0.387097 133.484 0.387097V9.6129C186.984 9.6129 230.355 52.9835 230.355 106.484H239.581ZM133.484 0.387097C74.8882 0.387097 27.3871 47.8882 27.3871 106.484H36.6129C36.6129 52.9835 79.9835 9.6129 133.484 9.6129V0.387097ZM27.3871 106.484C27.3871 158.027 64.1377 200.977 112.863 210.577L114.646 201.525C70.1624 192.761 36.6129 153.535 36.6129 106.484H27.3871ZM109.916 208.61L125.672 232.243L133.348 227.126L117.593 203.492L109.916 208.61ZM125.672 232.243C129.388 237.818 137.579 237.818 141.296 232.243L133.619 227.126C133.601 227.153 133.588 227.166 133.583 227.17C133.578 227.175 133.573 227.178 133.567 227.181C133.553 227.188 133.525 227.198 133.484 227.198C133.443 227.198 133.415 227.188 133.401 227.181C133.395 227.178 133.39 227.175 133.385 227.17C133.38 227.166 133.367 227.153 133.348 227.126L125.672 232.243ZM141.296 232.243L157.051 208.61L149.375 203.492L133.619 227.126L141.296 232.243Z" fill="#BDC1C8"/>
</g>
<circle cx="133.484" cy="272.548" r="18.4516" fill="white" stroke="#BDC1C8" stroke-width="9.22581"/>
<path d="M79.4799 98.0477C79.4799 99.8855 80.9143 101.634 83.3348 101.634C84.5898 101.634 85.6208 100.961 86.5621 100.199L131.431 62.547C132.417 61.6505 133.628 61.6505 134.614 62.547L179.483 100.199C180.379 100.961 181.41 101.634 182.665 101.634C184.772 101.634 186.475 100.334 186.475 98.1822C186.475 96.8375 186.027 95.941 185.086 95.1342L172.535 84.5557V66.626C172.535 64.6537 171.28 63.3986 169.308 63.3986H164.511C162.584 63.3986 161.284 64.6537 161.284 66.626V75.0977L138.424 55.913C135.107 53.0891 130.983 53.0891 127.621 55.913L80.9143 95.1342C79.9281 95.941 79.4799 97.0168 79.4799 98.0477ZM93.465 138.031C93.465 144.262 97.2303 147.937 103.55 147.937H162.494C168.815 147.937 172.535 144.262 172.535 138.031V102.53L135.689 71.6463C133.986 70.2119 131.969 70.2567 130.311 71.6463L93.465 102.53V138.031ZM144.52 140.72H121.391V111.092C121.391 109.03 122.78 107.685 124.842 107.685H141.113C143.175 107.685 144.52 109.03 144.52 111.092V140.72Z" fill="#0D6EFD"/>
<defs>
<filter id="filter0_d_4128_58941" x="0.324841" y="0.386719" width="266.318" height="290.162" filterUnits="userSpaceOnUse" color-interpolation-filters="sRGB">
<feFlood flood-opacity="0" result="BackgroundImageFix"/>
<feColorMatrix in="SourceAlpha" type="matrix" values="0 0 0 0 0 0 0 0 0 0 0 0 0 0 0 0 0 0 127 0" result="hardAlpha"/>
<feOffset dy="27.0624"/>
<feGaussianBlur stdDeviation="13.5312"/>
<feColorMatrix type="matrix" values="0 0 0 0 0.220417 0 0 0 0 0.4048 0 0 0 0 0.575 0 0 0 0.1 0"/>
<feBlend mode="normal" in2="BackgroundImageFix" result="effect1_dropShadow_4128_58941"/>
<feBlend mode="normal" in="SourceGraphic" in2="effect1_dropShadow_4128_58941" result="shape"/>
</filter>
</defs>
</svg>
