<svg width="267" height="296" viewBox="0 0 267 296" fill="none" xmlns="http://www.w3.org/2000/svg">
<g filter="url(#filter0_d_4205_61980)">
<path fill-rule="evenodd" clip-rule="evenodd" d="M153.213 206.051C199.818 196.869 234.968 155.781 234.968 106.484C234.968 50.4359 189.532 5 133.484 5C77.4359 5 32 50.4359 32 106.484C32 155.781 67.15 196.869 113.755 206.051L129.51 229.685C131.401 232.52 135.567 232.52 137.458 229.685L153.213 206.051Z" fill="white"/>
<path d="M153.213 206.051L152.321 201.525L150.439 201.896L149.375 203.492L153.213 206.051ZM113.755 206.051L117.593 203.492L116.529 201.896L114.646 201.525L113.755 206.051ZM129.51 229.685L133.348 227.126L129.51 229.685ZM137.458 229.685L133.619 227.126L137.458 229.685ZM154.105 210.577C202.83 200.977 239.581 158.027 239.581 106.484H230.355C230.355 153.535 196.805 192.761 152.321 201.525L154.105 210.577ZM239.581 106.484C239.581 47.8882 192.079 0.387097 133.484 0.387097V9.6129C186.984 9.6129 230.355 52.9835 230.355 106.484H239.581ZM133.484 0.387097C74.8882 0.387097 27.3871 47.8882 27.3871 106.484H36.6129C36.6129 52.9835 79.9835 9.6129 133.484 9.6129V0.387097ZM27.3871 106.484C27.3871 158.027 64.1377 200.977 112.863 210.577L114.646 201.525C70.1624 192.761 36.6129 153.535 36.6129 106.484H27.3871ZM109.916 208.61L125.672 232.243L133.348 227.126L117.593 203.492L109.916 208.61ZM125.672 232.243C129.388 237.818 137.579 237.818 141.296 232.243L133.619 227.126C133.601 227.153 133.588 227.166 133.583 227.17C133.578 227.175 133.573 227.178 133.567 227.181C133.553 227.188 133.525 227.198 133.484 227.198C133.443 227.198 133.415 227.188 133.401 227.181C133.395 227.178 133.39 227.175 133.385 227.17C133.38 227.166 133.367 227.153 133.348 227.126L125.672 232.243ZM141.296 232.243L157.051 208.61L149.375 203.492L133.619 227.126L141.296 232.243Z" fill="#BDC1C8"/>
</g>
<circle cx="133.452" cy="272.548" r="18.4516" fill="white" stroke="#BDC1C8" stroke-width="9.22581"/>
<path fill-rule="evenodd" clip-rule="evenodd" d="M164.305 83.4411L159.744 83.5277L169.837 116.868C168.444 117.215 167.129 117.629 165.89 118.1C167.109 117.638 168.396 117.234 169.76 116.888C178.614 114.896 185.931 117.802 192 124.711L184.443 128.28L152.34 143.455C152.09 141.482 151.975 139.635 152.014 137.893C152.004 138.143 151.985 138.403 151.985 138.663H115.139C115.129 146.582 108.714 152.99 100.811 152.99C92.908 152.99 86.4933 146.572 86.4837 138.663H74.4225C73.5871 122.238 81.327 109.604 94.8862 108.391H76.6408C75.1908 108.391 74.0096 107.198 74.0096 105.755V102.859C74.0096 101.425 75.1811 100.261 76.6024 100.261H76.8328V80.4198C76.8328 79.1208 77.8988 78.0527 79.1951 78.0527H113.189C114.486 78.0527 115.552 79.1208 115.552 80.4198V100.251H132.357C134.133 100.193 135.074 101.002 135.084 102.782V108.401V112.077C127.517 118.042 126.364 127.366 133.269 132.62H144.466C144.754 123.681 149.853 118.235 158.323 112.211L153.272 96.6139C151.188 91.7643 152.561 88.0886 155.605 85.5195C154.654 82.4597 153.973 79.8424 154.184 77.7063L148.893 78.8032C147.174 79.1593 146.732 79.7751 146.175 78.1104C146.079 77.8218 146.002 77.5427 145.954 77.2541C145.522 74.9736 145.791 75.1276 147.635 74.7716L153.281 73.6746H154.962L157.036 72.5104C158.275 71.7983 159.562 71.3749 160.877 71.2017L162.692 71.0863C164.555 71.0863 166.648 70.5667 167.724 72.289C167.743 72.3179 167.753 72.4238 167.762 72.5777C168.521 72.8375 169.174 73.4052 169.664 74.1846C170.269 75.1276 170.634 76.4169 170.634 77.8218C170.634 79.2266 170.259 80.516 169.664 81.459C168.992 82.5174 168.022 83.1909 166.908 83.2198C166.264 83.6817 165.246 83.4219 164.305 83.4411ZM92.9657 94.4489H81.0005V96.5561H92.9657V94.4489ZM102.06 80.1215H93.417V89.5319L97.9495 86.0102L102.06 89.5319V80.1215ZM92.9657 99.9335H81.0005V102.041H92.9657V99.9335ZM184.404 128.309L171.632 134.371L175.781 132.466C178.633 133.072 180.765 135.612 180.765 138.643C180.765 142.136 177.941 144.965 174.456 144.965C170.97 144.965 168.146 142.136 168.146 138.643C168.146 137.566 168.415 136.555 168.886 135.661L160.167 139.798C160.752 147.188 166.927 153 174.446 153C182.359 153 188.773 146.572 188.773 138.643C188.793 134.583 187.112 130.917 184.404 128.309ZM167.734 75.041C167.676 76.8884 167.551 79.2651 167.465 80.8624C167.618 80.7277 167.772 80.5545 167.906 80.3332C168.31 79.7077 168.55 78.8129 168.55 77.8122C168.55 76.8115 168.3 75.9166 167.906 75.2912C167.849 75.2046 167.791 75.118 167.734 75.041ZM107.111 138.663H94.4925C94.5021 142.146 97.3254 144.956 100.802 144.956C104.278 144.956 107.101 142.146 107.111 138.663Z" fill="#0D6EFD"/>
<defs>
<filter id="filter0_d_4205_61980" x="0.324718" y="0.386719" width="266.318" height="290.162" filterUnits="userSpaceOnUse" color-interpolation-filters="sRGB">
<feFlood flood-opacity="0" result="BackgroundImageFix"/>
<feColorMatrix in="SourceAlpha" type="matrix" values="0 0 0 0 0 0 0 0 0 0 0 0 0 0 0 0 0 0 127 0" result="hardAlpha"/>
<feOffset dy="27.0624"/>
<feGaussianBlur stdDeviation="13.5312"/>
<feColorMatrix type="matrix" values="0 0 0 0 0.220417 0 0 0 0 0.4048 0 0 0 0 0.575 0 0 0 0.1 0"/>
<feBlend mode="normal" in2="BackgroundImageFix" result="effect1_dropShadow_4205_61980"/>
<feBlend mode="normal" in="SourceGraphic" in2="effect1_dropShadow_4205_61980" result="shape"/>
</filter>
</defs>
</svg>
