<svg width="267" height="296" viewBox="0 0 267 296" fill="none" xmlns="http://www.w3.org/2000/svg">
<g filter="url(#filter0_d_4128_58895)">
<path fill-rule="evenodd" clip-rule="evenodd" d="M153.213 206.051C199.818 196.869 234.968 155.781 234.968 106.484C234.968 50.4359 189.532 5 133.484 5C77.4359 5 32 50.4359 32 106.484C32 155.781 67.15 196.869 113.755 206.051L129.51 229.685C131.401 232.52 135.567 232.52 137.458 229.685L153.213 206.051Z" fill="white"/>
<path d="M153.213 206.051L152.321 201.525L150.439 201.896L149.375 203.492L153.213 206.051ZM113.755 206.051L117.593 203.492L116.529 201.896L114.646 201.525L113.755 206.051ZM129.51 229.685L133.348 227.126L129.51 229.685ZM137.458 229.685L133.619 227.126L137.458 229.685ZM154.105 210.577C202.83 200.977 239.581 158.027 239.581 106.484H230.355C230.355 153.535 196.805 192.761 152.321 201.525L154.105 210.577ZM239.581 106.484C239.581 47.8882 192.079 0.387097 133.484 0.387097V9.6129C186.984 9.6129 230.355 52.9835 230.355 106.484H239.581ZM133.484 0.387097C74.8882 0.387097 27.3871 47.8882 27.3871 106.484H36.6129C36.6129 52.9835 79.9835 9.6129 133.484 9.6129V0.387097ZM27.3871 106.484C27.3871 158.027 64.1377 200.977 112.863 210.577L114.646 201.525C70.1624 192.761 36.6129 153.535 36.6129 106.484H27.3871ZM109.916 208.61L125.672 232.243L133.348 227.126L117.593 203.492L109.916 208.61ZM125.672 232.243C129.388 237.818 137.579 237.818 141.296 232.243L133.619 227.126C133.601 227.153 133.588 227.166 133.583 227.17C133.578 227.175 133.573 227.178 133.567 227.181C133.553 227.188 133.525 227.198 133.484 227.198C133.443 227.198 133.415 227.188 133.401 227.181C133.395 227.178 133.39 227.175 133.385 227.17C133.38 227.166 133.367 227.153 133.348 227.126L125.672 232.243ZM141.296 232.243L157.051 208.61L149.375 203.492L133.619 227.126L141.296 232.243Z" fill="#BDC1C8"/>
</g>
<circle cx="133.484" cy="272.548" r="18.4516" fill="white" stroke="#BDC1C8" stroke-width="9.22581"/>
<path d="M152.235 104.654C151.448 105.372 151.345 105.543 152.235 106.364C171.701 121.96 194.999 119.891 194.999 105.423C194.999 90.9558 171.684 88.9892 152.235 104.654Z" fill="#DEDEDE"/>
<path d="M113.765 106.414C114.552 105.662 114.654 105.542 113.765 104.704C94.3668 89.0051 71.0002 91.0231 71.0002 105.456C71.0002 119.89 94.2471 121.976 113.765 106.414Z" fill="#DEDEDE"/>
<path d="M133.88 124.764C133.144 123.995 133.008 123.875 132.169 124.764C116.535 144.209 118.485 167.517 133.042 167.517C147.599 167.517 149.515 144.174 133.88 124.764Z" fill="#DEDEDE"/>
<path d="M132.169 86.2696C132.904 87.0733 133.058 87.1589 133.879 86.2696C149.463 66.8255 147.376 43.5166 132.904 43.5166C118.433 43.5166 116.517 66.8426 132.169 86.2696Z" fill="#DEDEDE"/>
<path d="M177.279 61.2653C170.71 54.7668 147.959 75.5961 146.129 91.7396C146.088 91.9428 146.088 92.152 146.129 92.3552C146.338 92.3946 146.553 92.3946 146.762 92.3552C162.961 90.5596 183.779 67.815 177.279 61.2653Z" fill="#DEDEDE"/>
<path d="M88.7544 61.2298C82.2541 67.7796 103.089 90.5242 119.237 92.354C119.323 92.4424 119.441 92.493 119.565 92.4946C119.688 92.4962 119.807 92.4487 119.896 92.3625C119.984 92.2764 120.035 92.1586 120.036 92.0351C120.038 91.9116 119.99 91.7926 119.904 91.7041C118.074 75.5606 95.3059 54.6459 88.7544 61.2298Z" fill="#DEDEDE"/>
<path d="M88.7225 149.716C95.2741 156.214 118.025 135.385 119.855 119.241C119.897 119.038 119.897 118.829 119.855 118.626C119.651 118.591 119.443 118.591 119.239 118.626C103.091 120.421 82.2223 143.166 88.7225 149.716Z" fill="#DEDEDE"/>
<path d="M177.227 149.748C183.745 143.198 162.893 120.453 146.745 118.623C146.541 118.584 146.332 118.584 146.129 118.623C146.088 118.827 146.088 119.036 146.129 119.239C147.925 135.417 170.676 156.263 177.227 149.748Z" fill="#DEDEDE"/>
<path d="M152.235 104.654C151.448 105.372 151.345 105.543 152.235 106.364C171.701 121.96 194.999 119.891 194.999 105.423C194.999 90.9558 171.684 88.9892 152.235 104.654Z" fill="#00B2DD"/>
<path d="M113.765 106.414C114.552 105.662 114.654 105.542 113.765 104.704C94.3668 89.0051 71.0002 91.0231 71.0002 105.456C71.0002 119.89 94.2471 121.976 113.765 106.414Z" fill="#F7941D"/>
<path d="M133.88 124.764C133.144 123.995 133.008 123.875 132.169 124.764C116.535 144.209 118.485 167.517 133.042 167.517C147.599 167.517 149.515 144.174 133.88 124.764Z" fill="#FFD200"/>
<path d="M132.169 86.2696C132.904 87.0733 133.058 87.1589 133.879 86.2696C149.463 66.8255 147.376 43.5166 132.904 43.5166C118.433 43.5166 116.517 66.8426 132.169 86.2696Z" fill="#00539B"/>
<path d="M177.279 61.2653C170.71 54.7668 147.959 75.5961 146.129 91.7396C146.088 91.9428 146.088 92.152 146.129 92.3552C146.338 92.3946 146.553 92.3946 146.762 92.3552C162.961 90.5596 183.779 67.815 177.279 61.2653Z" fill="#00539B"/>
<path d="M88.7544 61.2298C82.2541 67.7796 103.089 90.5242 119.237 92.354C119.323 92.4424 119.441 92.493 119.565 92.4946C119.688 92.4962 119.807 92.4487 119.896 92.3625C119.984 92.2764 120.035 92.1586 120.036 92.0351C120.038 91.9116 119.99 91.7926 119.904 91.7041C118.074 75.5606 95.3059 54.6459 88.7544 61.2298Z" fill="#F7941D"/>
<path d="M88.7225 149.716C95.2741 156.214 118.025 135.385 119.855 119.241C119.897 119.038 119.897 118.829 119.855 118.626C119.651 118.591 119.443 118.591 119.239 118.626C103.091 120.421 82.2223 143.166 88.7225 149.716Z" fill="#FFD200"/>
<path d="M177.227 149.748C183.745 143.198 162.893 120.453 146.745 118.623C146.541 118.584 146.332 118.584 146.129 118.623C146.088 118.827 146.088 119.036 146.129 119.239C147.925 135.417 170.676 156.263 177.227 149.748Z" fill="#00B2DD"/>
<defs>
<filter id="filter0_d_4128_58895" x="0.324841" y="0.386719" width="266.318" height="290.162" filterUnits="userSpaceOnUse" color-interpolation-filters="sRGB">
<feFlood flood-opacity="0" result="BackgroundImageFix"/>
<feColorMatrix in="SourceAlpha" type="matrix" values="0 0 0 0 0 0 0 0 0 0 0 0 0 0 0 0 0 0 127 0" result="hardAlpha"/>
<feOffset dy="27.0624"/>
<feGaussianBlur stdDeviation="13.5312"/>
<feColorMatrix type="matrix" values="0 0 0 0 0.220417 0 0 0 0 0.4048 0 0 0 0 0.575 0 0 0 0.1 0"/>
<feBlend mode="normal" in2="BackgroundImageFix" result="effect1_dropShadow_4128_58895"/>
<feBlend mode="normal" in="SourceGraphic" in2="effect1_dropShadow_4128_58895" result="shape"/>
</filter>
</defs>
</svg>
