<svg width="16" height="16" viewBox="0 0 16 16" fill="none" xmlns="http://www.w3.org/2000/svg">
<path d="M8 0C8.73438 0 9.4401 0.0963542 10.1172 0.289062C10.7995 0.481771 11.4349 0.752604 12.0234 1.10156C12.6172 1.44531 13.1589 1.86198 13.6484 2.35156C14.138 2.84115 14.5547 3.38281 14.8984 3.97656C15.2474 4.5651 15.5182 5.20052 15.7109 5.88281C15.9036 6.5599 16 7.26562 16 8C16 8.72917 15.9036 9.4349 15.7109 10.1172C15.5182 10.7943 15.2474 11.4297 14.8984 12.0234C14.5495 12.6172 14.1302 13.1589 13.6406 13.6484C13.1562 14.1328 12.6172 14.5495 12.0234 14.8984C11.4297 15.2474 10.7943 15.5182 10.1172 15.7109C9.4401 15.9036 8.73438 16 8 16C7.27083 16 6.5651 15.9036 5.88281 15.7109C5.20573 15.5182 4.57031 15.2474 3.97656 14.8984C3.38281 14.5495 2.84115 14.1328 2.35156 13.6484C1.86719 13.1589 1.45052 12.6172 1.10156 12.0234C0.752604 11.4297 0.481771 10.7943 0.289062 10.1172C0.0963542 9.4349 0 8.72917 0 8C0 7.26562 0.0963542 6.5599 0.289062 5.88281C0.481771 5.20573 0.752604 4.57031 1.10156 3.97656C1.45052 3.38281 1.86719 2.84375 2.35156 2.35938C2.84115 1.86979 3.38281 1.45052 3.97656 1.10156C4.57031 0.752604 5.20573 0.481771 5.88281 0.289062C6.5651 0.0963542 7.27083 0 8 0ZM7.32031 3.25781C7.21094 3.25781 7.10677 3.28125 7.00781 3.32812C6.91406 3.36979 6.82812 3.42969 6.75 3.50781C6.67708 3.58073 6.61719 3.66667 6.57031 3.76562C6.52865 3.85938 6.50781 3.96094 6.50781 4.07031V8.40625C6.50781 8.51562 6.52865 8.6224 6.57031 8.72656C6.61198 8.83073 6.67188 8.92188 6.75 9L9.1875 11.4219C9.34896 11.5833 9.54167 11.6641 9.76562 11.6641C9.875 11.6641 9.97917 11.6432 10.0781 11.6016C10.1771 11.5547 10.263 11.4948 10.3359 11.4219C10.4089 11.3438 10.4661 11.2552 10.5078 11.1562C10.5547 11.0573 10.5781 10.9531 10.5781 10.8438C10.5781 10.7396 10.5547 10.638 10.5078 10.5391C10.4661 10.4349 10.4089 10.3464 10.3359 10.2734L8.13281 8.08594V4.07031C8.13281 3.96094 8.10938 3.85677 8.0625 3.75781C8.02083 3.65885 7.96354 3.57292 7.89062 3.5C7.81771 3.42708 7.73177 3.36979 7.63281 3.32812C7.53385 3.28125 7.42969 3.25781 7.32031 3.25781Z" fill="#FFAA44"/>
</svg>
