<svg width="16" height="16" viewBox="0 0 16 16" fill="none" xmlns="http://www.w3.org/2000/svg">
<path d="M8 0C8.73438 0 9.4401 0.0963542 10.1172 0.289062C10.7943 0.481771 11.4297 0.752604 12.0234 1.10156C12.6172 1.45052 13.1562 1.86979 13.6406 2.35938C14.1302 2.84375 14.5495 3.38281 14.8984 3.97656C15.2474 4.57031 15.5182 5.20573 15.7109 5.88281C15.9036 6.5599 16 7.26562 16 8C16 8.72917 15.9036 9.4349 15.7109 10.1172C15.5182 10.7943 15.2474 11.4297 14.8984 12.0234C14.5495 12.6172 14.1302 13.1589 13.6406 13.6484C13.1562 14.1328 12.6172 14.5495 12.0234 14.8984C11.4297 15.2474 10.7917 15.5182 10.1094 15.7109C9.43229 15.9036 8.72917 16 8 16C7.27083 16 6.5651 15.9036 5.88281 15.7109C5.20573 15.5182 4.57031 15.2474 3.97656 14.8984C3.38281 14.5495 2.84115 14.1328 2.35156 13.6484C1.86719 13.1589 1.45052 12.6172 1.10156 12.0234C0.752604 11.4297 0.481771 10.7943 0.289062 10.1172C0.0963542 9.4349 0 8.72917 0 8C0 7.27083 0.0963542 6.56771 0.289062 5.89062C0.481771 5.20833 0.752604 4.57031 1.10156 3.97656C1.45052 3.38281 1.86719 2.84375 2.35156 2.35938C2.84115 1.86979 3.38281 1.45052 3.97656 1.10156C4.57031 0.752604 5.20573 0.481771 5.88281 0.289062C6.5651 0.0963542 7.27083 0 8 0ZM10.6328 5.6875C10.4245 5.6875 10.2474 5.76042 10.1016 5.90625L7.27344 8.75L6.26562 7.75C6.11979 7.60417 5.94531 7.53125 5.74219 7.53125C5.64323 7.53125 5.54948 7.55208 5.46094 7.59375C5.3724 7.63542 5.29167 7.69271 5.21875 7.76562C5.15104 7.83333 5.09635 7.91146 5.05469 8C5.01302 8.08854 4.99219 8.18229 4.99219 8.28125C4.99219 8.48958 5.0651 8.66667 5.21094 8.8125L6.74219 10.3438C6.88802 10.4896 7.0651 10.5625 7.27344 10.5625C7.48177 10.5625 7.65885 10.4896 7.80469 10.3438L11.1641 6.96875C11.3099 6.82292 11.3828 6.64583 11.3828 6.4375C11.3828 6.33854 11.362 6.24479 11.3203 6.15625C11.2786 6.06771 11.2214 5.98958 11.1484 5.92188C11.0807 5.84896 11.0026 5.79167 10.9141 5.75C10.8255 5.70833 10.7318 5.6875 10.6328 5.6875Z" fill="#6BB700"/>
</svg>
